# Alias OBJ Model File
# Exported from SketchUp, (c) 2000-2012 Trimble Navigation Limited
# File units = inches

mtllib room.mtl

g Mesh1 Model

usemtl Color_003
v -2.13163e-014 0 -5774.99
vt -5774.99 0
vn -1 0 3.74876e-018
v 0 0 -88.7631
vt -88.7631 0
v 0 2511.25 -88.7631
vt -88.7631 2511.25
v -2.13163e-014 2511.25 -5774.99
vt -5774.99 2511.25
f 1/1/1 2/2/1 3/3/1 4/4/1 

v 88.7631 2511.25 -0
vt 62.765 2511.25
vn -0.707107 0 0.707107
vt -62.765 2511.25
vt -62.765 0
v 88.7631 0 -0
vt 62.765 0
f 5/5/2 3/6/2 2/7/2 6/8/2 

usemtl Color_007
v 88.7631 2511.25 -5863.75
vt 88.7631 5863.75
vn 0 1 -0
vt 0 88.7631
vt 88.7631 0
f 7/9/3 3/10/3 5/11/3

vt -2.13163e-014 5774.99
f 3/10/3 7/9/3 4/12/3

usemtl Color_003
vt -4083.53 2511.25
vn -0.707107 0 -0.707107
vt -4209.06 2511.25
v 88.7631 0 -5863.75
vt -4209.06 0
vt -4083.53 0
f 4/13/4 7/14/4 8/15/4 1/16/4 

v 2852.05 0 -5863.75
vt -2852.05 0
vn 0 0 -1
v 2089.63 0 -5863.75
vt -2089.63 0
v 2089.63 1360.5 -5863.75
vt -2089.63 1360.5
v 376.125 1360.5 -5863.75
vt -376.125 1360.5
v 376.125 0 -5863.75
vt -376.125 0
v 2852.05 2511.25 -5863.75
vt -2852.05 2511.25
f 9/17/5 10/18/5 11/19/5 12/20/5 13/21/5 8/2/5 7/3/5 14/22/5 

v 2089.63 0 -5712.54
vt -5712.54 0
vn -1 0 -0
v 2089.63 1360.5 -5712.54
vt -5712.54 1360.5
vt -5863.75 1360.5
vt -5863.75 0
f 15/23/6 16/24/6 11/25/6 10/26/6 

v 151.206 0 -5712.54
vt 151.206 0
vn 0 0 1
v 376.125 0 -5712.54
vt 376.125 0
v 376.125 1360.5 -5712.54
vt 376.125 1360.5
vt 2089.63 1360.5
vt 2089.63 0
v 2789.61 0 -5712.54
vt 2789.61 0
v 2789.61 2453.94 -5712.54
vt 2789.61 2453.94
v 151.206 2453.94 -5712.54
vt 151.206 2453.94
f 17/27/7 18/28/7 19/29/7 16/30/7 15/31/7 20/32/7 21/33/7 22/34/7 

vt 5712.54 1360.5
vn 1 0 -0
vt 5712.54 0
vt 5863.75 0
vt 5863.75 1360.5
f 19/35/8 18/36/8 13/37/8 12/38/8 

vt -2089.63 5712.54
vn 0 -1 -0
vt -376.125 5712.54
vt -376.125 5863.75
vt -2089.63 5863.75
f 16/39/9 19/40/9 12/41/9 11/42/9 

v 2789.61 462.329 -4559
vt -4559 462.329
vt -5712.54 2453.94
f 20/23/6 23/43/6 21/44/6

v 2789.61 462.329 -3225.74
vt -3225.74 462.329
f 20/23/6 24/45/6 23/43/6

v 2789.61 462.329 -2038.56
vt -2038.56 462.329
f 20/23/6 25/46/6 24/45/6

v 2789.61 462.329 -705.297
vt -705.297 462.329
f 20/23/6 26/47/6 25/46/6

v 2789.61 0 -151.206
vt -151.206 0
f 27/48/6 26/47/6 20/23/6

v 2789.61 1286.33 -705.297
vt -705.297 1286.33
f 26/47/6 27/48/6 28/49/6

v 2789.61 2453.94 -151.206
vt -151.206 2453.94
f 29/50/6 28/49/6 27/48/6

f 28/49/6 29/50/6 21/44/6

usemtl Color_007
vt -2789.61 5712.54
vt -2789.61 151.206
v 151.206 2453.94 -151.206
vt -151.206 151.206
v 151.206 2453.94 -272.018
vt -151.206 272.018
vt -151.206 5712.54
f 21/51/9 29/52/9 30/53/9 31/54/9 22/55/9 

usemtl FrontColor
v 2789.61 2511.25 -151.206
vt -151.206 2511.25
v 2789.61 2511.25 -5712.54
vt -5712.54 2511.25
f 32/56/6 33/57/6 21/44/6 29/50/6 

usemtl Color_007
vt 2789.61 151.206
v 2852.05 2511.25 -0
vt 2852.05 0
vt 2789.61 5712.54
f 32/58/3 34/59/3 33/60/3

v 151.206 2511.25 -151.206
vt 151.206 151.206
f 35/61/3 34/59/3 32/58/3

f 35/61/3 5/11/3 34/59/3

f 7/9/3 5/11/3 35/61/3

v 151.206 2511.25 -272.018
vt 151.206 272.018
f 36/62/3 7/9/3 35/61/3

v 151.206 2511.25 -5712.54
vt 151.206 5712.54
f 37/63/3 7/9/3 36/62/3

vt 2852.05 5863.75
f 7/9/3 37/63/3 14/64/3

f 14/64/3 37/63/3 33/60/3

usemtl FrontColor
f 33/51/9 32/52/9 35/53/9 36/54/9 37/55/9 

vt -2789.61 2511.25
vt -2789.61 2453.94
f 35/56/5 32/65/5 29/66/5 30/50/5 

usemtl Color_003
v 151.206 0 -151.206
vt -2789.61 0
v 2089.63 0 -151.206
v 2089.63 1360.5 -151.206
v 376.125 1360.5 -151.206
v 376.125 0 -151.206
f 38/48/5 30/50/5 29/66/5 27/67/5 39/18/5 40/19/5 41/20/5 42/21/5 

vt 5712.54 -1.38077e-017
vn 1 9.13171e-020 1.02714e-017
vt 5712.54 2453.94
vt 272.018 2453.94
vt 151.206 -1.38077e-017
f 17/68/10 22/69/10 31/70/10 30/34/10 38/71/10 

usemtl FrontColor
vt 5712.54 2511.25
vn 1 0 1.04481e-017
vt 272.018 2511.25
f 37/72/11 36/73/11 31/70/11 22/69/11 

vt 151.206 2511.25
f 36/73/8 35/74/8 30/34/8 31/70/8 

vt 2789.61 2511.25
f 33/75/7 37/74/7 22/34/7 21/33/7 

usemtl Color_003
v 2089.63 0 -0
vt 0 6.98458e-013
vn -1 3.3425e-016 -0
v 2089.63 1360.5 -0
vt 0 1360.5
vt -151.206 1360.5
vt -151.206 6.98458e-013
f 43/76/12 44/77/12 40/78/12 39/79/12 

v 376.125 1360.5 -0
v 2852.05 0 -0
vt 2852.05 2511.25
vt 88.7631 2511.25
v 376.125 0 -0
f 45/29/7 44/30/7 43/31/7 46/59/7 34/80/7 5/81/7 6/11/7 47/28/7 

vt -376.125 151.206
vt -2089.63 151.206
f 44/18/9 45/21/9 41/82/9 40/83/9 

vt 0 0
vt 151.206 1360.5
f 45/77/8 47/84/8 42/27/8 41/85/8 

vt 2016.7 2511.25
vn 0.707107 -1.44004e-018 0.707107
vt 2016.7 2.90413e-015
v 2940.81 0 -88.7631
vt 2142.23 2.90413e-015
v 2940.81 2511.25 -88.7631
vt 2142.23 2511.25
f 34/86/13 46/87/13 48/88/13 49/89/13 

v 2940.81 462.329 -705.297
vt 705.297 462.329
f 48/11/8 50/90/8 49/81/8

v 2940.81 0 -5774.99
vt 5774.99 0
f 50/90/8 48/11/8 51/91/8

v 2940.81 462.329 -2038.56
vt 2038.56 462.329
f 50/90/8 51/91/8 52/92/8

v 2940.81 462.329 -3225.74
vt 3225.74 462.329
f 52/92/8 51/91/8 53/93/8

v 2940.81 462.329 -4559
vt 4559 462.329
f 53/93/8 51/91/8 54/94/8

v 2940.81 1286.33 -4559
vt 4559 1286.33
f 54/94/8 51/91/8 55/95/8

v 2940.81 2511.25 -5774.99
vt 5774.99 2511.25
f 56/96/8 55/95/8 51/91/8

v 2940.81 1286.33 -3225.74
vt 3225.74 1286.33
f 56/96/8 57/97/8 55/95/8

v 2940.81 1286.33 -2038.56
vt 2038.56 1286.33
f 56/96/8 58/98/8 57/97/8

v 2940.81 1286.33 -705.297
vt 705.297 1286.33
f 56/96/8 59/99/8 58/98/8

f 59/99/8 56/96/8 49/81/8

usemtl Color_007
vt 2940.81 88.7631
vt 2940.81 5774.99
f 14/64/3 49/100/3 56/101/3

f 14/64/3 34/59/3 49/100/3

f 14/64/3 33/60/3 34/59/3

usemtl Color_003
vt 2129.59 2511.25
vn 0.707107 0 -0.707107
vt 2004.06 2511.25
vt 2004.06 0
vt 2129.59 0
f 14/102/14 56/103/14 51/104/14 9/105/14 

f 49/81/8 50/90/8 59/99/8

vt -2940.81 1286.33
vn 0 1.37969e-016 -1
vt -2940.81 462.329
vt -2789.61 462.329
vt -2789.61 1286.33
f 59/106/15 50/107/15 26/108/15 28/109/15 

vt 2940.81 705.297
vn 0 1 8.52698e-017
vt 2940.81 2038.56
vt 2789.61 2038.56
vt 2789.61 705.297
f 50/110/16 52/111/16 25/112/16 26/113/16 

vt 2940.81 462.329
vt 2940.81 1286.33
v 2789.61 1286.33 -2038.56
vt 2789.61 1286.33
vt 2789.61 462.329
f 52/114/7 58/115/7 60/116/7 25/117/7 

f 52/92/8 53/93/8 58/98/8

f 57/97/8 58/98/8 53/93/8

v 2789.61 1286.33 -3225.74
f 57/106/5 53/107/5 24/108/5 61/109/5 

vt 2940.81 3225.74
vt 2940.81 4559
vt 2789.61 4559
vt 2789.61 3225.74
f 53/118/16 54/119/16 23/120/16 24/121/16 

v 2789.61 1286.33 -4559
f 54/114/7 55/115/7 62/116/7 23/117/7 

vt -2940.81 4559
vt -2940.81 3225.74
vt -2789.61 3225.74
vt -2789.61 4559
f 55/122/9 57/123/9 61/124/9 62/125/9 

vt -3225.74 1286.33
vt -4559 1286.33
f 61/126/6 21/44/6 62/127/6

vt -2038.56 1286.33
f 60/128/6 21/44/6 61/126/6

f 28/49/6 21/44/6 60/128/6

vt -2940.81 2038.56
vt -2940.81 705.297
vt -2789.61 705.297
vt -2789.61 2038.56
f 58/129/9 59/130/9 28/131/9 60/132/9 

f 60/128/6 61/126/6 25/46/6

f 24/45/6 25/46/6 61/126/6

f 62/127/6 21/44/6 23/43/6

