# Alias OBJ Model File
# Exported from SketchUp, (c) 2000-2012 Trimble Navigation Limited
# File units = inches

mtllib room.mtl

g Mesh1 Group2 Group1 Model

usemtl Color_007
v 2789.61 2511.25 -151.206
vt 2789.61 151.206
vn 0 1 -0
v 2789.61 2511.25 -5712.54
vt 2789.61 5712.54
v 151.206 2511.25 -5712.54
vt 151.206 5712.54
v 151.206 2511.25 -272.018
vt 151.206 272.018
v 151.206 2511.25 -151.206
vt 151.206 151.206
f 1/1/1 2/2/1 3/3/1 4/4/1 5/5/1 

v 2852.05 2511.25 -0
vt 2852.05 0
f 1/1/1 6/6/1 2/2/1

f 5/5/1 6/6/1 1/1/1

v 88.7631 2511.25 -0
vt 88.7631 0
f 5/5/1 7/7/1 6/6/1

v 88.7631 2511.25 -5863.75
vt 88.7631 5863.75
f 8/8/1 7/7/1 5/5/1

v 0 2511.25 -88.7631
vt 2.13163e-014 88.7631
f 8/8/1 9/9/1 7/7/1

v -2.13163e-014 2511.25 -5774.99
vt 0 5774.99
f 9/9/1 8/8/1 10/10/1

f 4/4/1 8/8/1 5/5/1

f 3/3/1 8/8/1 4/4/1

v 2852.05 2511.25 -5863.75
vt 2852.05 5863.75
f 8/8/1 3/3/1 11/11/1

f 11/11/1 3/3/1 2/2/1

f 11/11/1 2/2/1 6/6/1

v 2940.81 2511.25 -88.7631
vt 2940.81 88.7631
f 11/11/1 6/6/1 12/12/1

v 2940.81 2511.25 -5774.99
vt 2940.81 5774.99
f 11/11/1 12/12/1 13/13/1

g Mesh2 Group1 Model

v 2789.61 2095.5 -5712.54
vt -2789.61 5712.54
vn 0 -1 -0
v 2789.61 2095.5 -151.206
vt -2789.61 151.206
v 151.206 2095.5 -151.206
vt -151.206 151.206
v 151.206 2095.5 -272.018
vt -151.206 272.018
v 151.206 2095.5 -5712.54
vt -151.206 5712.54
f 14/14/2 15/15/2 16/16/2 17/17/2 18/18/2 

g Mesh3 Group3 Model

usemtl Color_003
v 2089.63 1237.31 -5712.54
vt -2089.63 5712.54
v 376.125 1237.31 -5712.54
vt -376.125 5712.54
v 376.125 1237.31 -5863.75
vt -376.125 5863.75
v 2089.63 1237.31 -5863.75
vt -2089.63 5863.75
f 19/19/2 20/20/2 21/21/2 22/22/2 

v 151.206 0 -5712.54
vt 151.206 0
vn 0 0 1
v 376.125 0 -5712.54
vt 376.125 0
vt 376.125 1237.31
vt 2089.63 1237.31
v 2089.63 0 -5712.54
vt 2089.63 0
v 2789.61 0 -5712.54
vt 2789.61 0
vt 2789.61 2095.5
vt 151.206 2095.5
f 23/23/3 24/24/3 20/25/3 19/26/3 25/27/3 26/28/3 14/29/3 18/30/3 

vt 5712.54 1237.31
vn 1 0 -0
vt 5712.54 0
v 376.125 0 -5863.75
vt 5863.75 0
vt 5863.75 1237.31
f 20/31/4 24/32/4 27/33/4 21/34/4 

v 2852.05 0 -5863.75
vt -2852.05 0
vn 0 0 -1
v 2089.63 0 -5863.75
vt -2089.63 0
vt -2089.63 1237.31
vt -376.125 1237.31
vt -376.125 0
v 88.7631 0 -5863.75
vt -88.7631 0
v 88.7631 2511.25 -5863.75
vt -88.7631 2511.25
vt -2852.05 2511.25
f 28/35/5 29/36/5 22/37/5 21/38/5 27/39/5 30/40/5 31/41/5 11/42/5 

vt -5712.54 0
vn -1 0 -0
vt -5712.54 1237.31
vt -5863.75 1237.31
vt -5863.75 0
f 25/43/6 19/44/6 22/45/6 29/46/6 

v 0 2511.25 -5774.99
vt -4083.53 2511.25
vn -0.707107 0 -0.707107
vt -4209.06 2511.25
vt -4209.06 0
v 0 0 -5774.99
vt -4083.53 0
f 32/47/7 31/48/7 30/49/7 33/50/7 

vt -5774.99 0
vn -1 0 3.74876e-018
v 2.13163e-014 0 -88.7631
v 2.13163e-014 2511.25 -88.7631
vt -5774.99 2511.25
f 33/51/8 34/40/8 35/41/8 32/52/8 

v 88.7631 2511.25 -0
vt 62.765 2511.25
vn -0.707107 0 0.707107
vt -62.765 2511.25
vt -62.765 0
v 88.7631 0 -0
vt 62.765 0
f 36/53/9 35/54/9 34/55/9 37/56/9 

v 376.125 1187.69 -0
vt 376.125 1187.69
v 2089.63 1187.69 -0
vt 2089.63 1187.69
v 2089.63 0 -0
v 2852.05 0 -0
vt 2852.05 2511.25
vt 88.7631 2511.25
v 376.125 0 -0
f 38/57/3 39/58/3 40/27/3 41/6/3 6/59/3 36/60/3 37/7/3 42/24/3 

v 376.125 1187.69 -151.206
vt -376.125 151.206
v 2089.63 1187.69 -151.206
vt -2089.63 151.206
f 39/36/2 38/39/2 43/61/2 44/62/2 

vt 0 1187.69
vt 0 0
v 376.125 0 -151.206
vt 151.206 1187.69
f 38/63/4 42/64/4 45/23/4 43/65/4 

v 151.206 0 -151.206
vt -151.206 0
vt -151.206 2095.5
vt -2789.61 2095.5
v 2789.61 0 -151.206
vt -2789.61 0
v 2089.63 0 -151.206
vt -2089.63 1187.69
vt -376.125 1187.69
f 46/66/5 16/67/5 15/68/5 47/69/5 48/36/5 44/70/5 43/71/5 45/39/5 

vt 5712.54 -1.38077e-017
vn 1 9.13171e-020 1.02714e-017
vt 5712.54 2095.5
vt 272.018 2095.5
vt 151.206 -1.38077e-017
f 23/72/10 18/73/10 17/74/10 16/30/10 46/75/10 

usemtl Color_001
vt 5712.54 2511.25
vn 1 0 1.04481e-017
vt 272.018 2511.25
f 3/76/11 4/77/11 17/74/11 18/73/11 

vt 151.206 2511.25
f 4/77/4 5/78/4 16/30/4 17/74/4 

vt -151.206 2511.25
vt -2789.61 2511.25
f 5/79/5 1/80/5 15/68/5 16/67/5 

vt -5712.54 2511.25
vt -5712.54 2095.5
f 1/79/6 2/81/6 14/82/6 15/67/6 

vt 2789.61 2511.25
f 2/83/3 3/78/3 18/30/3 14/29/3 

usemtl Color_003
v 2789.61 1286.33 -705.297
vt -705.297 1286.33
f 49/84/6 15/67/6 14/82/6

f 15/67/6 49/84/6 47/66/6

v 2789.61 638.017 -705.297
vt -705.297 638.017
f 50/85/6 47/66/6 49/84/6

f 47/66/6 50/85/6 26/43/6

v 2789.61 638.017 -2038.56
vt -2038.56 638.017
f 26/43/6 50/85/6 51/86/6

v 2940.81 638.017 -705.297
vt 2940.81 705.297
vn 0 1 8.52698e-017
v 2940.81 638.017 -2038.56
vt 2940.81 2038.56
vt 2789.61 2038.56
vt 2789.61 705.297
f 52/87/12 53/88/12 51/89/12 50/90/12 

vt 705.297 638.017
v 2940.81 0 -5774.99
vt 5774.99 0
vt 2038.56 638.017
f 52/91/4 54/92/4 53/93/4

v 2940.81 0 -88.7631
f 52/91/4 55/7/4 54/92/4

f 55/7/4 52/91/4 12/60/4

v 2940.81 1286.33 -705.297
vt 705.297 1286.33
f 12/60/4 52/91/4 56/94/4

vt -2940.81 1286.33
vn 0 1.37969e-016 -1
vt -2940.81 638.017
vt -2789.61 638.017
vt -2789.61 1286.33
f 56/95/13 52/96/13 50/97/13 49/98/13 

v 2940.81 1286.33 -2038.56
vt -2940.81 2038.56
vt -2940.81 705.297
vt -2789.61 705.297
v 2789.61 1286.33 -2038.56
vt -2789.61 2038.56
f 57/99/2 56/100/2 49/101/2 58/102/2 

vt 5774.99 2511.25
vt 2038.56 1286.33
f 13/103/4 56/94/4 57/104/4

f 56/94/4 13/103/4 12/60/4

v 2940.81 1286.33 -3225.74
vt 3225.74 1286.33
f 13/103/4 57/104/4 59/105/4

v 2940.81 662.517 -3225.74
vt 3225.74 662.517
f 59/105/4 57/104/4 60/106/4

f 53/93/4 60/106/4 57/104/4

f 53/93/4 54/92/4 60/106/4

v 2940.81 662.517 -4559
vt 4559 662.517
f 60/106/4 54/92/4 61/107/4

v 2940.81 1286.33 -4559
vt 4559 1286.33
f 61/107/4 54/92/4 62/108/4

f 13/103/4 62/108/4 54/92/4

f 13/103/4 59/105/4 62/108/4

vt -2940.81 4559
vt -2940.81 3225.74
v 2789.61 1286.33 -3225.74
vt -2789.61 3225.74
v 2789.61 1286.33 -4559
vt -2789.61 4559
f 62/109/2 59/110/2 63/111/2 64/112/2 

vt -2940.81 662.517
v 2789.61 662.517 -3225.74
vt -2789.61 662.517
f 59/95/5 60/113/5 65/114/5 63/98/5 

vt 2940.81 3225.74
vt 2940.81 4559
v 2789.61 662.517 -4559
vt 2789.61 4559
vt 2789.61 3225.74
f 60/115/12 61/116/12 66/117/12 65/118/12 

vt 2940.81 662.517
vt 2940.81 1286.33
vt 2789.61 1286.33
vt 2789.61 662.517
f 61/119/3 62/120/3 64/121/3 66/122/3 

vt -4559 1286.33
vt -4559 662.517
f 64/123/6 14/82/6 66/124/6

vt -3225.74 1286.33
f 63/125/6 14/82/6 64/123/6

vt -2038.56 1286.33
f 58/126/6 14/82/6 63/125/6

f 49/84/6 14/82/6 58/126/6

f 58/126/6 63/125/6 51/86/6

vt -3225.74 662.517
f 65/127/6 51/86/6 63/125/6

f 26/43/6 51/86/6 65/127/6

f 26/43/6 65/127/6 66/124/6

f 26/43/6 66/124/6 14/82/6

vt 2940.81 638.017
vt 2789.61 638.017
f 53/128/3 57/120/3 58/121/3 51/129/3 

vt 2129.59 2511.25
vn 0.707107 0 -0.707107
vt 2004.06 2511.25
vt 2004.06 0
vt 2129.59 0
f 11/130/14 13/131/14 54/132/14 28/133/14 

vt 2016.7 2511.25
vn 0.707107 -1.44004e-018 0.707107
vt 2016.7 2.90413e-015
vt 2142.23 2.90413e-015
vt 2142.23 2511.25
f 6/134/15 41/135/15 55/136/15 12/137/15 

vt 0 6.98458e-013
vn -1 3.3425e-016 -0
vt -151.206 1187.69
vt -151.206 6.98458e-013
f 40/138/16 39/63/16 44/139/16 48/140/16 

