# Obj file C:\Users\Kyle\Desktop\ORGANIZE 4\VR WIDGETS\VR \
#    Scroller\thin\Scroller-thin-fill.obj generated by Autodesk OpenModel V2013 
# Wed Oct 29 16:37:16 2014
# The units used in this file are Centimeters 
# fromNurbs
# usemtl UNKNOWN
g Obj_fromNurbs
v -1.325 -4.925 6.031385e-016
v -1.325 4.925 -6.031385e-016
v 1.325 4.925 -6.031385e-016
v 1.325 -4.925 6.031385e-016
v -1.325 0.7142857 -8.747477e-017
v 1.325 0.7142857 -8.747477e-017
v -0.2 4.925 -6.031385e-016
v -0.2 0.7142857 -8.747477e-017
v -1.325 3.571429 -4.373739e-016
v -0.2 3.571429 -4.373739e-016
v -1 4.925 -6.031385e-016
v -1 3.571429 -4.373739e-016
v -0.6 4.925 -6.031385e-016
v -0.6 3.571429 -4.373739e-016
v -1 0.7142857 -8.747477e-017
v -1.325 2.142857 -2.624243e-016
v -1 2.142857 -2.624243e-016
v -0.2 2.142857 -2.624243e-016
v -0.6 2.142857 -2.624243e-016
v -0.6 0.7142857 -8.747477e-017
v 0.6 4.925 -6.031385e-016
v 0.6 0.7142857 -8.747477e-017
v 0.6 3.571429 -4.373739e-016
v 0.2 4.925 -6.031385e-016
v 0.2 3.571429 -4.373739e-016
v 0.6 2.142857 -2.624243e-016
v 0.2 2.142857 -2.624243e-016
v 0.2 0.7142857 -8.747477e-017
v 1.325 3.571429 -4.373739e-016
v 1 4.925 -6.031385e-016
v 1 3.571429 -4.373739e-016
v 1.325 2.142857 -2.624243e-016
v 1 2.142857 -2.624243e-016
v 1 0.7142857 -8.747477e-017
v -0.2 -4.925 6.031385e-016
v -1.325 -2.142857 2.624243e-016
v -0.2 -2.142857 2.624243e-016
v -1 -2.142857 2.624243e-016
v -1.325 -0.7142857 8.747477e-017
v -1 -0.7142857 8.747477e-017
v -0.2 -0.7142857 8.747477e-017
v -0.6 -0.7142857 8.747477e-017
v -0.6 -2.142857 2.624243e-016
v -1 -4.925 6.031385e-016
v -1.325 -3.571429 4.373739e-016
v -1 -3.571429 4.373739e-016
v -0.2 -3.571429 4.373739e-016
v -0.6 -3.571429 4.373739e-016
v -0.6 -4.925 6.031385e-016
v 1.325 -2.142857 2.624243e-016
v 0.6 -2.142857 2.624243e-016
v 0.6 -0.7142857 8.747477e-017
v 0.2 -0.7142857 8.747477e-017
v 0.2 -2.142857 2.624243e-016
v 1.325 -0.7142857 8.747477e-017
v 1 -0.7142857 8.747477e-017
v 1 -2.142857 2.624243e-016
v 0.6 -4.925 6.031385e-016
v 0.6 -3.571429 4.373739e-016
v 0.2 -3.571429 4.373739e-016
v 0.2 -4.925 6.031385e-016
v 1.325 -3.571429 4.373739e-016
v 1 -3.571429 4.373739e-016
v 1 -4.925 6.031385e-016
g
vn 0 -1.224647e-016 -1
vn 0 -1.224647e-016 -1
vn 0 -1.224647e-016 -1
vn 0 -1.224647e-016 -1
vn 0 -1.224647e-016 -1
vn 0 -1.224647e-016 -1
vn 0 -1.224647e-016 -1
vn 0 -1.224647e-016 -1
vn 0 -1.224647e-016 -1
vn 0 -1.224647e-016 -1
vn 0 -1.224647e-016 -1
vn 0 -1.224647e-016 -1
vn 0 -1.224647e-016 -1
vn 0 -1.224647e-016 -1
vn 0 -1.224647e-016 -1
vn 0 -1.224647e-016 -1
vn 0 -1.224647e-016 -1
vn 0 -1.224647e-016 -1
vn 0 -1.224647e-016 -1
vn 0 -1.224647e-016 -1
vn 0 -1.224647e-016 -1
vn 0 -1.224647e-016 -1
vn 0 -1.224647e-016 -1
vn 0 -1.224647e-016 -1
vn 0 -1.224647e-016 -1
vn 0 -1.224647e-016 -1
vn 0 -1.224647e-016 -1
vn 0 -1.224647e-016 -1
vn 0 -1.224647e-016 -1
vn 0 -1.224647e-016 -1
vn 0 -1.224647e-016 -1
vn 0 -1.224647e-016 -1
vn 0 -1.224647e-016 -1
vn 0 -1.224647e-016 -1
vn 0 -1.224647e-016 -1
vn 0 -1.224647e-016 -1
vn 0 -1.224647e-016 -1
vn 0 -1.224647e-016 -1
vn 0 -1.224647e-016 -1
vn 0 -1.224647e-016 -1
vn 0 -1.224647e-016 -1
vn 0 -1.224647e-016 -1
vn 0 -1.224647e-016 -1
vn 0 -1.224647e-016 -1
vn 0 -1.224647e-016 -1
vn 0 -1.224647e-016 -1
vn 0 -1.224647e-016 -1
vn 0 -1.224647e-016 -1
vn 0 -1.224647e-016 -1
vn 0 -1.224647e-016 -1
vn 0 -1.224647e-016 -1
vn 0 -1.224647e-016 -1
vn 0 -1.224647e-016 -1
vn 0 -1.224647e-016 -1
vn 0 -1.224647e-016 -1
vn 0 -1.224647e-016 -1
vn 0 -1.224647e-016 -1
vn 0 -1.224647e-016 -1
vn 0 -1.224647e-016 -1
vn 0 -1.224647e-016 -1
vn 0 -1.224647e-016 -1
vn 0 -1.224647e-016 -1
vn 0 -1.224647e-016 -1
vn 0 -1.224647e-016 -1
vt 0.02678571 0.9925
vt 0.02678571 0.0075
vt 0.9732143 0.0075
vt 0.9732143 0.9925
vt 0.02678571 0.4285714
vt 0.9732143 0.4285714
vt 0.4285714 0.0075
vt 0.4285714 0.4285714
vt 0.02678571 0.1428571
vt 0.4285714 0.1428571
vt 0.1428571 0.0075
vt 0.1428571 0.1428571
vt 0.2857143 0.0075
vt 0.2857143 0.1428571
vt 0.1428571 0.4285714
vt 0.02678571 0.2857143
vt 0.1428571 0.2857143
vt 0.4285714 0.2857143
vt 0.2857143 0.2857143
vt 0.2857143 0.4285714
vt 0.7142857 0.0075
vt 0.7142857 0.4285714
vt 0.7142857 0.1428571
vt 0.5714286 0.0075
vt 0.5714286 0.1428571
vt 0.7142857 0.2857143
vt 0.5714286 0.2857143
vt 0.5714286 0.4285714
vt 0.9732143 0.1428571
vt 0.8571429 0.0075
vt 0.8571429 0.1428571
vt 0.9732143 0.2857143
vt 0.8571429 0.2857143
vt 0.8571429 0.4285714
vt 0.4285714 0.9925
vt 0.02678571 0.7142857
vt 0.4285714 0.7142857
vt 0.1428571 0.7142857
vt 0.02678571 0.5714286
vt 0.1428571 0.5714286
vt 0.4285714 0.5714286
vt 0.2857143 0.5714286
vt 0.2857143 0.7142857
vt 0.1428571 0.9925
vt 0.02678571 0.8571429
vt 0.1428571 0.8571429
vt 0.4285714 0.8571429
vt 0.2857143 0.8571429
vt 0.2857143 0.9925
vt 0.9732143 0.7142857
vt 0.7142857 0.7142857
vt 0.7142857 0.5714286
vt 0.5714286 0.5714286
vt 0.5714286 0.7142857
vt 0.9732143 0.5714286
vt 0.8571429 0.5714286
vt 0.8571429 0.7142857
vt 0.7142857 0.9925
vt 0.7142857 0.8571429
vt 0.5714286 0.8571429
vt 0.5714286 0.9925
vt 0.9732143 0.8571429
vt 0.8571429 0.8571429
vt 0.8571429 0.9925
s 1
f 62/62/62 4/4/4 63/63/63
f 32/32/32 6/6/6 33/33/33
f 18/18/18 8/8/8 19/19/19
f 13/13/13 7/7/7 10/10/10
f 2/2/2 11/11/11 12/12/12
f 11/11/11 13/13/13 14/14/14
f 16/16/16 17/17/17 15/15/15
f 9/9/9 12/12/12 17/17/17
f 14/14/14 10/10/10 18/18/18
f 12/12/12 14/14/14 19/19/19
f 17/17/17 19/19/19 20/20/20
f 26/26/26 22/22/22 27/27/27
f 24/24/24 21/21/21 23/23/23
f 7/7/7 24/24/24 25/25/25
f 23/23/23 26/26/26 25/25/25
f 10/10/10 25/25/25 27/27/27
f 18/18/18 27/27/27 28/28/28
f 30/30/30 3/3/3 29/29/29
f 21/21/21 30/30/30 31/31/31
f 29/29/29 32/32/32 31/31/31
f 23/23/23 31/31/31 33/33/33
f 26/26/26 33/33/33 34/34/34
f 47/47/47 35/35/35 48/48/48
f 41/41/41 37/37/37 42/42/42
f 39/39/39 40/40/40 38/38/38
f 5/5/5 15/15/15 40/40/40
f 20/20/20 8/8/8 41/41/41
f 15/15/15 20/20/20 42/42/42
f 40/40/40 42/42/42 43/43/43
f 45/45/45 46/46/46 44/44/44
f 36/36/36 38/38/38 46/46/46
f 43/43/43 37/37/37 47/47/47
f 38/38/38 43/43/43 48/48/48
f 46/46/46 48/48/48 49/49/49
f 55/55/55 50/50/50 56/56/56
f 52/52/52 51/51/51 53/53/53
f 28/28/28 22/22/22 52/52/52
f 8/8/8 28/28/28 53/53/53
f 41/41/41 53/53/53 54/54/54
f 34/34/34 6/6/6 55/55/55
f 22/22/22 34/34/34 56/56/56
f 52/52/52 56/56/56 57/57/57
f 60/60/60 59/59/59 58/58/58
f 54/54/54 51/51/51 59/59/59
f 37/37/37 54/54/54 60/60/60
f 47/47/47 60/60/60 61/61/61
f 50/50/50 62/62/62 57/57/57
f 51/51/51 57/57/57 63/63/63
f 59/59/59 63/63/63 64/64/64
f 4/4/4 64/64/64 63/63/63
f 6/6/6 34/34/34 33/33/33
f 8/8/8 20/20/20 19/19/19
f 10/10/10 14/14/14 13/13/13
f 12/12/12 9/9/9 2/2/2
f 14/14/14 12/12/12 11/11/11
f 15/15/15 5/5/5 16/16/16
f 17/17/17 16/16/16 9/9/9
f 18/18/18 19/19/19 14/14/14
f 19/19/19 17/17/17 12/12/12
f 20/20/20 15/15/15 17/17/17
f 22/22/22 28/28/28 27/27/27
f 23/23/23 25/25/25 24/24/24
f 25/25/25 10/10/10 7/7/7
f 26/26/26 27/27/27 25/25/25
f 27/27/27 18/18/18 10/10/10
f 28/28/28 8/8/8 18/18/18
f 29/29/29 31/31/31 30/30/30
f 31/31/31 23/23/23 21/21/21
f 32/32/32 33/33/33 31/31/31
f 33/33/33 26/26/26 23/23/23
f 34/34/34 22/22/22 26/26/26
f 35/35/35 49/49/49 48/48/48
f 37/37/37 43/43/43 42/42/42
f 38/38/38 36/36/36 39/39/39
f 40/40/40 39/39/39 5/5/5
f 41/41/41 42/42/42 20/20/20
f 42/42/42 40/40/40 15/15/15
f 43/43/43 38/38/38 40/40/40
f 44/44/44 1/1/1 45/45/45
f 46/46/46 45/45/45 36/36/36
f 47/47/47 48/48/48 43/43/43
f 48/48/48 46/46/46 38/38/38
f 49/49/49 44/44/44 46/46/46
f 50/50/50 57/57/57 56/56/56
f 51/51/51 54/54/54 53/53/53
f 52/52/52 53/53/53 28/28/28
f 53/53/53 41/41/41 8/8/8
f 54/54/54 37/37/37 41/41/41
f 55/55/55 56/56/56 34/34/34
f 56/56/56 52/52/52 22/22/22
f 57/57/57 51/51/51 52/52/52
f 58/58/58 61/61/61 60/60/60
f 59/59/59 60/60/60 54/54/54
f 60/60/60 47/47/47 37/37/37
f 61/61/61 35/35/35 47/47/47
f 62/62/62 63/63/63 57/57/57
f 63/63/63 59/59/59 51/51/51
f 64/64/64 58/58/58 59/59/59
s off
# End of Obj file C:\Users\Kyle\Desktop\ORGANIZE 4\VR WIDGETS\VR \
#    Scroller\thin\Scroller-thin-fill.obj
