# Obj file C:\Users\Kyle\Desktop\ORGANIZE 4\VR WIDGETS\VR \
#    Scroller\thin\Scroller-thin-arrow.obj generated by Autodesk OpenModel V2013 
# Wed Oct 29 16:37:49 2014
# The units used in this file are Centimeters 
# fromNurbs
# usemtl UNKNOWN
g Obj_fromNurbs
v -0.1321097 -0.08807313 1.078585e-017
v 0 0.08807307 -1.078585e-017
v 0.1321097 -0.08807313 1.078585e-017
v 0.04134195 0.03295052 -4.035278e-018
v 0.04134195 -0.08807313 1.078585e-017
g
vn 0 -1.224647e-016 -1
vn 0 -1.224647e-016 -1
vn 0 -1.224647e-016 -1
vn 0 -1.224647e-016 -1
vn 0 -1.224647e-016 -1
vt 0.4837731 0.9778003
vt 0.550536 0.888783
vt 0.617299 0.9778003
vt 0.5714286 0.9166398
vt 0.5714286 0.9778003
s 1
f 4/4/4 3/3/3 5/5/5
f 1/1/1 2/2/2 4/4/4
f 4/4/4 5/5/5 1/1/1
s off
# End of Obj file C:\Users\Kyle\Desktop\ORGANIZE 4\VR WIDGETS\VR \
#    Scroller\thin\Scroller-thin-arrow.obj
