# Obj file C:\Users\Kyle\Desktop\ORGANIZE 4\VR WIDGETS\VR SLIDERS\slider-line \
#    fill.obj generated by Autodesk OpenModel V2013 
# Tue Oct 28 13:54:33 2014
# The units used in this file are Centimeters 
# fromNurbs
# usemtl UNKNOWN
g Obj_fromNurbs
v 0.114306 -0.1143062 1.399847e-017
v -0.114306 -0.1143062 1.399847e-017
v -0.114306 0.1143062 -1.399847e-017
v 0.114306 0.1143062 -1.399847e-017
v -0.114306 0.07296479 -8.935606e-018
v 0.114306 0.07296479 -8.935606e-018
g
vn 0 -1.224647e-016 -1
vn 0 -1.224647e-016 -1
vn 0 -1.224647e-016 -1
vn 0 -1.224647e-016 -1
vn 0 -1.224647e-016 -1
vn 0 -1.224647e-016 -1
vt 0.1082868 0.5901557
vt 0.08542556 0.5901557
vt 0.08542556 0.5672944
vt 0.1082868 0.5672944
vt 0.08542556 0.5714286
vt 0.1082868 0.5714286
s 1
f 5/5/5 6/6/6 1/1/1
f 3/3/3 4/4/4 6/6/6
f 1/1/1 2/2/2 5/5/5
f 6/6/6 5/5/5 3/3/3
s off
# End of Obj file C:\Users\Kyle\Desktop\ORGANIZE 4\VR WIDGETS\VR \
#    SLIDERS\slider-line fill.obj
