# Obj file C:\Users\Kyle\Desktop\ORGANIZE 4\VR WIDGETS\VR \
#    SLIDERS\slider-cursor stroke.obj generated by Autodesk OpenModel V2013 
# Tue Oct 28 13:53:35 2014
# The units used in this file are Centimeters 
# fromNurbs
# usemtl UNKNOWN
g Obj_fromNurbs
v 2.384186e-007 0.8483607 -1.038942e-016
v 2.384186e-007 -0.8483607 1.038942e-016
v 0.8483477 0 -3.85186e-032
v -0.8483475 0 5.77779e-032
v 2.384186e-007 -0.7721523 9.456138e-017
v 2.384186e-007 0.7721785 -9.456459e-017
v 0.7721655 -5.960464e-008 1.941241e-024
v -0.7721654 -5.960464e-008 1.941226e-024
v 0.8396032 -0.1219773 1.49379e-017
v -0.8396029 -0.1219773 1.49379e-017
v 0.7625411 -0.1219773 1.49379e-017
v -0.7625409 -0.1219773 1.49379e-017
v -0.2541604 0.8094791 -9.91326e-017
v -0.2541604 0.7292112 -8.93026e-017
v -0.6067971 0.5923083 -7.253685e-017
v -0.4948863 0.5923088 -7.25369e-017
v -0.3541067 0.7708795 -9.440551e-017
v -0.2541599 0.7708797 -9.440554e-017
v -0.4327313 0.7294798 -8.933552e-017
v -0.4327316 0.6392405 -7.828439e-017
v -0.8151988 0.2351658 -2.879951e-017
v -0.7355618 0.2351658 -2.879951e-017
v -0.6113031 0.5876581 -7.196737e-017
v -0.6113034 0.4712651 -5.771333e-017
v -0.7404524 0.4137365 -5.066811e-017
v -0.6517299 0.4137368 -5.066814e-017
v -0.7898744 0.3095823 -3.79129e-017
v -0.7898743 0.2351655 -2.879947e-017
v 0.6067972 0.5923083 -7.253685e-017
v 0.4948864 0.5923088 -7.25369e-017
v 0.4601254 0.7124555 -8.725064e-017
v 0.4601259 0.6197565 -7.589828e-017
v 0.1029825 0.842143 -1.031328e-016
v 0.1029825 0.7653385 -9.372694e-017
v 0.3541069 0.7708795 -9.440551e-017
v 0.1029828 0.7708797 -9.440554e-017
v 0.2815545 0.8003388 -9.801324e-017
v 0.2815542 0.7708797 -9.440554e-017
v 0.2815542 0.7190449 -8.80576e-017
v 0.8151989 0.2351658 -2.879951e-017
v 0.7355618 0.2351658 -2.879951e-017
v 0.7404525 0.4137365 -5.066811e-017
v 0.6517301 0.4137368 -5.066814e-017
v 0.6386974 0.5577875 -6.830927e-017
v 0.6386971 0.4335217 -5.309109e-017
v 0.8172698 0.2278752 -2.790666e-017
v 0.8172686 -0.1219773 1.493792e-017
v -0.2541604 -0.8094791 9.91326e-017
v -0.2541604 -0.7291846 8.929935e-017
v -0.6997746 -0.4791204 5.867531e-017
v -0.6051364 -0.4791206 5.867535e-017
v -0.6113034 -0.4712447 5.771083e-017
v -0.6113029 -0.4791203 5.867531e-017
v -0.7933676 -0.3005489 3.680663e-017
v -0.7112701 -0.3005488 3.680661e-017
v -0.7898743 -0.1219773 1.493792e-017
v -0.7898743 -0.3005489 3.680661e-017
v -0.7898744 -0.3095824 3.79129e-017
v -0.6113031 -0.587658 7.196737e-017
v -0.5352992 -0.6576922 8.054406e-017
v -0.4041972 -0.6576914 8.054396e-017
v -0.4327316 -0.6392151 7.828127e-017
v -0.4327315 -0.6576917 8.0544e-017
v -0.4327313 -0.7294798 8.933552e-017
v 0.1432505 -0.8362625 1.024126e-016
v -0.1432502 -0.8362625 1.024126e-016
v 0.4601254 -0.7124555 8.725064e-017
v 0.4601259 -0.6197315 7.589522e-017
v 0.1029828 -0.8362631 1.024127e-016
v 0.1029825 -0.7653123 9.372371e-017
v 0.4041975 -0.6576914 8.054396e-017
v 0.4601257 -0.6576917 8.0544e-017
v 0.2815545 -0.8003387 9.801324e-017
v 0.2815542 -0.7190183 8.805435e-017
v 0.699775 -0.4791204 5.867531e-017
v 0.6051364 -0.4791206 5.867535e-017
v 0.8172698 -0.2278751 2.790666e-017
v 0.7933679 -0.3005489 3.680663e-017
v 0.7112701 -0.3005488 3.680661e-017
v 0.6386971 -0.4791203 5.867531e-017
v 0.6386971 -0.4335027 5.308876e-017
v 0.5352993 -0.6576922 8.054406e-017
v 0.6386974 -0.5577875 6.830927e-017
g
vn 0 -1.224647e-016 -1
vn 0 -1.224647e-016 -1
vn 0 -1.224647e-016 -1
vn 0 -1.224647e-016 -1
vn 0 -1.224647e-016 -1
vn 0 -1.224647e-016 -1
vn 0 -1.224647e-016 -1
vn 0 -1.224647e-016 -1
vn 0 -1.224647e-016 -1
vn 0 -1.224647e-016 -1
vn 0 -1.224647e-016 -1
vn 0 -1.224647e-016 -1
vn 0 -1.224647e-016 -1
vn 0 -1.224647e-016 -1
vn 0 -1.224647e-016 -1
vn 0 -1.224647e-016 -1
vn 0 -1.224647e-016 -1
vn 0 -1.224647e-016 -1
vn 0 -1.224647e-016 -1
vn 0 -1.224647e-016 -1
vn 0 -1.224647e-016 -1
vn 0 -1.224647e-016 -1
vn 0 -1.224647e-016 -1
vn 0 -1.224647e-016 -1
vn 0 -1.224647e-016 -1
vn 0 -1.224647e-016 -1
vn 0 -1.224647e-016 -1
vn 0 -1.224647e-016 -1
vn 0 -1.224647e-016 -1
vn 0 -1.224647e-016 -1
vn 0 -1.224647e-016 -1
vn 0 -1.224647e-016 -1
vn 0 -1.224647e-016 -1
vn 0 -1.224647e-016 -1
vn 0 -1.224647e-016 -1
vn 0 -1.224647e-016 -1
vn 0 -1.224647e-016 -1
vn 0 -1.224647e-016 -1
vn 0 -1.224647e-016 -1
vn 0 -1.224647e-016 -1
vn 0 -1.224647e-016 -1
vn 0 -1.224647e-016 -1
vn 0 -1.224647e-016 -1
vn 0 -1.224647e-016 -1
vn 0 -1.224647e-016 -1
vn 0 -1.224647e-016 -1
vn 0 -1.224647e-016 -1
vn 0 -1.224647e-016 -1
vn 0 -1.224647e-016 -1
vn 0 -1.224647e-016 -1
vn 0 -1.224647e-016 -1
vn 0 -1.224647e-016 -1
vn 0 -1.224647e-016 -1
vn 0 -1.224647e-016 -1
vn 0 -1.224647e-016 -1
vn 0 -1.224647e-016 -1
vn 0 -1.224647e-016 -1
vn 0 -1.224647e-016 -1
vn 0 -1.224647e-016 -1
vn 0 -1.224647e-016 -1
vn 0 -1.224647e-016 -1
vn 0 -1.224647e-016 -1
vn 0 -1.224647e-016 -1
vn 0 -1.224647e-016 -1
vn 0 -1.224647e-016 -1
vn 0 -1.224647e-016 -1
vn 0 -1.224647e-016 -1
vn 0 -1.224647e-016 -1
vn 0 -1.224647e-016 -1
vn 0 -1.224647e-016 -1
vn 0 -1.224647e-016 -1
vn 0 -1.224647e-016 -1
vn 0 -1.224647e-016 -1
vn 0 -1.224647e-016 -1
vn 0 -1.224647e-016 -1
vn 0 -1.224647e-016 -1
vn 0 -1.224647e-016 -1
vn 0 -1.224647e-016 -1
vn 0 -1.224647e-016 -1
vn 0 -1.224647e-016 -1
vn 0 -1.224647e-016 -1
vn 0 -1.224647e-016 -1
vn 0 -1.224647e-016 -1
vt 0.7397017 0.3315376
vt 0.7397017 0.5012097
vt 0.8245365 0.4163737
vt 0.654867 0.4163737
vt 0.7397017 0.4935889
vt 0.7397017 0.3391559
vt 0.8169183 0.4163737
vt 0.6624852 0.4163737
vt 0.8236622 0.4285714
vt 0.6557413 0.4285714
vt 0.8159559 0.4285714
vt 0.6634476 0.4285714
vt 0.7142857 0.3354259
vt 0.7142857 0.3434527
vt 0.679022 0.3571429
vt 0.6902131 0.3571429
vt 0.704291 0.3392857
vt 0.7142857 0.3392857
vt 0.6964286 0.3434257
vt 0.6964286 0.3524497
vt 0.658182 0.3928571
vt 0.6661457 0.3928571
vt 0.6785714 0.3576079
vt 0.6785714 0.3692472
vt 0.6656564 0.375
vt 0.6745287 0.375
vt 0.6607143 0.3854155
vt 0.6607143 0.3928571
vt 0.8003814 0.3571429
vt 0.7891903 0.3571429
vt 0.7857143 0.3451281
vt 0.7857143 0.3543981
vt 0.75 0.3321593
vt 0.75 0.3398397
vt 0.7751124 0.3392857
vt 0.75 0.3392857
vt 0.7678571 0.3363399
vt 0.7678571 0.3392857
vt 0.7678571 0.3444692
vt 0.8212215 0.3928571
vt 0.8132578 0.3928571
vt 0.813747 0.375
vt 0.8048748 0.375
vt 0.8035714 0.360595
vt 0.8035714 0.3730215
vt 0.8214286 0.3935862
vt 0.8214286 0.4285714
vt 0.7142857 0.4973215
vt 0.7142857 0.4892921
vt 0.6697243 0.4642857
vt 0.6791881 0.4642857
vt 0.6785714 0.4634981
vt 0.6785714 0.4642857
vt 0.660365 0.4464286
vt 0.6685747 0.4464286
vt 0.6607143 0.4285714
vt 0.6607143 0.4464286
vt 0.6607143 0.4473319
vt 0.6785714 0.4751395
vt 0.6861718 0.4821429
vt 0.699282 0.4821429
vt 0.6964286 0.4802952
vt 0.6964286 0.4821429
vt 0.6964286 0.4893217
vt 0.7540268 0.5
vt 0.7253767 0.5
vt 0.7857143 0.4876193
vt 0.7857143 0.4783468
vt 0.75 0.5
vt 0.75 0.492905
vt 0.7801215 0.4821429
vt 0.7857143 0.4821429
vt 0.7678571 0.4964075
vt 0.7678571 0.4882755
vt 0.8096792 0.4642857
vt 0.8002153 0.4642857
vt 0.8214286 0.4391612
vt 0.8190385 0.4464286
vt 0.8108287 0.4464286
vt 0.8035714 0.4642857
vt 0.8035714 0.4597239
vt 0.7932316 0.4821429
vt 0.8035714 0.4721524
s 1
f 2/2/2 66/66/66 69/69/69
f 3/3/3 9/9/9 47/47/47
f 4/4/4 21/21/21 28/28/28
f 17/17/17 18/18/18 14/14/14
f 17/17/17 13/13/13 18/18/18
f 19/19/19 20/20/20 16/16/16
f 23/23/23 15/15/15 16/16/16
f 27/27/27 25/25/25 26/26/26
f 25/25/25 23/23/23 24/24/24
f 21/21/21 27/27/27 28/28/28
f 31/31/31 29/29/29 30/30/30
f 31/31/31 32/32/32 39/39/39
f 6/6/6 14/14/14 18/18/18
f 37/37/37 35/35/35 38/38/38
f 37/37/37 38/38/38 36/36/36
f 34/34/34 36/36/36 38/38/38
f 42/42/42 40/40/40 41/41/41
f 42/42/42 43/43/43 45/45/45
f 44/44/44 45/45/45 30/30/30
f 47/47/47 11/11/11 7/7/7
f 64/64/64 63/63/63 61/61/61
f 52/52/52 51/51/51 53/53/53
f 50/50/50 58/58/58 55/55/55
f 12/12/12 55/55/55 57/57/57
f 54/54/54 10/10/10 56/56/56
f 58/58/58 54/54/54 57/57/57
f 59/59/59 50/50/50 53/53/53
f 62/62/62 61/61/61 63/63/63
f 59/59/59 53/53/53 51/51/51
f 64/64/64 60/60/60 63/63/63
f 82/82/82 67/67/67 72/72/72
f 67/67/67 73/73/73 74/74/74
f 66/66/66 48/48/48 49/49/49
f 71/71/71 68/68/68 72/72/72
f 65/65/65 69/69/69 70/70/70
f 9/9/9 77/77/77 47/47/47
f 75/75/75 80/80/80 81/81/81
f 77/77/77 78/78/78 79/79/79
f 80/80/80 76/76/76 81/81/81
f 75/75/75 83/83/83 80/80/80
f 83/83/83 82/82/82 68/68/68
f 69/69/69 65/65/65 2/2/2
f 47/47/47 46/46/46 3/3/3
f 8/8/8 12/12/12 56/56/56
f 8/8/8 10/10/10 4/4/4
f 22/22/22 8/8/8 4/4/4
f 28/28/28 22/22/22 4/4/4
f 56/56/56 10/10/10 8/8/8
f 20/20/20 19/19/19 17/17/17
f 14/14/14 20/20/20 17/17/17
f 16/16/16 15/15/15 19/19/19
f 16/16/16 24/24/24 23/23/23
f 22/22/22 28/28/28 27/27/27
f 27/27/27 26/26/26 22/22/22
f 24/24/24 26/26/26 25/25/25
f 30/30/30 32/32/32 31/31/31
f 39/39/39 38/38/38 35/35/35
f 35/35/35 31/31/31 39/39/39
f 36/36/36 34/34/34 6/6/6
f 1/1/1 33/33/33 6/6/6
f 13/13/13 1/1/1 6/6/6
f 18/18/18 13/13/13 6/6/6
f 6/6/6 33/33/33 36/36/36
f 36/36/36 33/33/33 37/37/37
f 38/38/38 39/39/39 34/34/34
f 41/41/41 43/43/43 42/42/42
f 45/45/45 44/44/44 42/42/42
f 30/30/30 29/29/29 44/44/44
f 41/41/41 40/40/40 46/46/46
f 7/7/7 41/41/41 46/46/46
f 7/7/7 46/46/46 47/47/47
f 49/49/49 48/48/48 64/64/64
f 61/61/61 49/49/49 64/64/64
f 58/58/58 57/57/57 55/55/55
f 52/52/52 53/53/53 50/50/50
f 50/50/50 55/55/55 52/52/52
f 57/57/57 56/56/56 12/12/12
f 56/56/56 57/57/57 54/54/54
f 62/62/62 63/63/63 60/60/60
f 62/62/62 60/60/60 59/59/59
f 51/51/51 62/62/62 59/59/59
f 71/71/71 72/72/72 67/67/67
f 67/67/67 74/74/74 71/71/71
f 5/5/5 70/70/70 69/69/69
f 5/5/5 69/69/69 66/66/66
f 49/49/49 5/5/5 66/66/66
f 70/70/70 74/74/74 73/73/73
f 70/70/70 73/73/73 65/65/65
f 79/79/79 78/78/78 75/75/75
f 81/81/81 79/79/79 75/75/75
f 11/11/11 47/47/47 77/77/77
f 79/79/79 11/11/11 77/77/77
f 82/82/82 72/72/72 68/68/68
f 76/76/76 80/80/80 83/83/83
f 83/83/83 68/68/68 76/76/76
s off
# End of Obj file C:\Users\Kyle\Desktop\ORGANIZE 4\VR WIDGETS\VR \
#    SLIDERS\slider-cursor stroke.obj
