# Obj file C:\Users\Kyle\Desktop\ORGANIZE 4\VR WIDGETS\VR \
#    SLIDERS\slider-cursor dot.obj generated by Autodesk OpenModel V2013 
# Tue Oct 28 13:54:00 2014
# The units used in this file are Centimeters 
# fromNurbs
# usemtl UNKNOWN
g Obj_fromNurbs
v 0.273746 -5.960464e-008 -1.444447e-030
v -0.273746 -5.960464e-008 -1.194077e-030
v -2.384186e-007 -0.2737461 3.352422e-017
v -2.384186e-007 0.273746 -3.352422e-017
v -0.1551256 -0.2255943 2.762733e-017
v -0.1551256 0.2255943 -2.762733e-017
v -0.264323 0.07142413 -8.746935e-018
v -0.1551194 0.07142711 -8.747298e-018
v -0.2216358 0.1607185 -1.968234e-017
v -0.1551194 0.1607128 -1.968164e-017
v -0.2444119 0.1234345 -1.511638e-017
v -0.2444053 0.07142711 -8.747298e-018
v -0.2519844 -0.1071447 1.312144e-017
v -0.1551194 -0.1071443 1.312139e-017
v 0.2643228 0.07142413 -8.746935e-018
v 0.2020245 0.1847289 -2.262277e-017
v 0.2020233 0.07142711 -8.747298e-018
v -0.1116922 0.2500012 -3.061632e-017
v 0.111692 0.2500012 -3.061632e-017
v 0.02345133 0.2727504 -3.340228e-017
v 0.02345181 0.2499986 -3.061599e-017
v 0.02345181 0.07142711 -8.747298e-018
v 0.2020245 -0.1847289 2.262277e-017
v 0.2020233 -0.1071443 1.312139e-017
v 0.02345181 -0.1071443 1.312139e-017
v 0.02345133 -0.2727503 3.340228e-017
v 0.1906626 -0.1964301 2.405576e-017
v 0.02345181 -0.19643 2.405574e-017
v 0.1127377 -0.19643 2.405574e-017
v 0.1127377 -0.1071443 1.312139e-017
v 0.1127388 -0.2495306 3.055868e-017
v 0.2519844 -0.1071447 1.312144e-017
g
vn 0 -1.224647e-016 -1
vn 0 -1.224647e-016 -1
vn 0 -1.224647e-016 -1
vn 0 -1.224647e-016 -1
vn 0 -1.224647e-016 -1
vn 0 -1.224647e-016 -1
vn 0 -1.224647e-016 -1
vn 0 -1.224647e-016 -1
vn 0 -1.224647e-016 -1
vn 0 -1.224647e-016 -1
vn 0 -1.224647e-016 -1
vn 0 -1.224647e-016 -1
vn 0 -1.224647e-016 -1
vn 0 -1.224647e-016 -1
vn 0 -1.224647e-016 -1
vn 0 -1.224647e-016 -1
vn 0 -1.224647e-016 -1
vn 0 -1.224647e-016 -1
vn 0 -1.224647e-016 -1
vn 0 -1.224647e-016 -1
vn 0 -1.224647e-016 -1
vn 0 -1.224647e-016 -1
vn 0 -1.224647e-016 -1
vn 0 -1.224647e-016 -1
vn 0 -1.224647e-016 -1
vn 0 -1.224647e-016 -1
vn 0 -1.224647e-016 -1
vn 0 -1.224647e-016 -1
vn 0 -1.224647e-016 -1
vn 0 -1.224647e-016 -1
vn 0 -1.224647e-016 -1
vn 0 -1.224647e-016 -1
vt 0.7571723 0.5785713
vt 0.702423 0.5785713
vt 0.7297977 0.6059459
vt 0.7297977 0.5511967
vt 0.7142857 0.6011298
vt 0.7142857 0.5560127
vt 0.7033643 0.5714286
vt 0.7142857 0.5714286
vt 0.7076349 0.5625
vt 0.7142857 0.5625
vt 0.7053571 0.5662282
vt 0.7053571 0.5714286
vt 0.7045993 0.5892857
vt 0.7142857 0.5892857
vt 0.7562311 0.5714286
vt 0.75 0.5600985
vt 0.75 0.5714286
vt 0.7186286 0.5535714
vt 0.7409667 0.5535714
vt 0.7321429 0.5512958
vt 0.7321429 0.5535714
vt 0.7321429 0.5714286
vt 0.75 0.5970441
vt 0.75 0.5892857
vt 0.7321429 0.5892857
vt 0.7321429 0.6058468
vt 0.7488639 0.5982143
vt 0.7321429 0.5982143
vt 0.7410714 0.5982143
vt 0.7410714 0.5892857
vt 0.7410714 0.603524
vt 0.754996 0.5892857
s 1
f 32/32/32 23/23/23 24/24/24
f 5/5/5 13/13/13 14/14/14
f 9/9/9 10/10/10 8/8/8
f 9/9/9 6/6/6 10/10/10
f 7/7/7 11/11/11 12/12/12
f 2/2/2 12/12/12 8/8/8
f 16/16/16 15/15/15 17/17/17
f 16/16/16 17/17/17 22/22/22
f 20/20/20 19/19/19 21/21/21
f 4/4/4 20/20/20 21/21/21
f 18/18/18 21/21/21 22/22/22
f 27/27/27 31/31/31 29/29/29
f 22/22/22 17/17/17 24/24/24
f 8/8/8 22/22/22 25/25/25
f 5/5/5 14/14/14 25/25/25
f 29/29/29 30/30/30 24/24/24
f 25/25/25 30/30/30 29/29/29
f 31/31/31 26/26/26 28/28/28
f 32/32/32 24/24/24 17/17/17
f 8/8/8 12/12/12 11/11/11
f 11/11/11 9/9/9 8/8/8
f 2/2/2 7/7/7 12/12/12
f 8/8/8 14/14/14 13/13/13
f 8/8/8 13/13/13 2/2/2
f 22/22/22 21/21/21 19/19/19
f 19/19/19 16/16/16 22/22/22
f 21/21/21 18/18/18 4/4/4
f 10/10/10 6/6/6 18/18/18
f 22/22/22 8/8/8 10/10/10
f 10/10/10 18/18/18 22/22/22
f 30/30/30 25/25/25 22/22/22
f 22/22/22 24/24/24 30/30/30
f 25/25/25 14/14/14 8/8/8
f 28/28/28 26/26/26 3/3/3
f 28/28/28 3/3/3 5/5/5
f 5/5/5 25/25/25 28/28/28
f 23/23/23 27/27/27 29/29/29
f 29/29/29 24/24/24 23/23/23
f 29/29/29 28/28/28 25/25/25
f 28/28/28 29/29/29 31/31/31
f 17/17/17 15/15/15 1/1/1
f 1/1/1 32/32/32 17/17/17
s off
# End of Obj file C:\Users\Kyle\Desktop\ORGANIZE 4\VR WIDGETS\VR \
#    SLIDERS\slider-cursor dot.obj
